<svg xmlns="http://www.w3.org/2000/svg" width="118.543" height="94.645" viewBox="0 0 118.543 94.645">
    <path id="Icon_awesome-shopping-cart" data-name="Icon awesome-shopping-cart" d="M107.758,55.111,117.4,17.068c.7-2.747-1.633-5.362-4.775-5.362H32.485l-1.87-8.2A4.8,4.8,0,0,0,25.817,0H4.9A4.664,4.664,0,0,0,0,4.39V7.316a4.664,4.664,0,0,0,4.9,4.39H19.156L33.49,74.52A10.106,10.106,0,0,0,27.75,83.4c0,5.657,5.116,10.242,11.426,10.242S50.6,89.059,50.6,83.4a9.724,9.724,0,0,0-3.433-7.316H89.946A9.724,9.724,0,0,0,86.514,83.4c0,5.657,5.116,10.242,11.426,10.242s11.426-4.586,11.426-10.242a10.216,10.216,0,0,0-6.443-9.219l1.126-4.44c.7-2.747-1.633-5.362-4.775-5.362H44.5l-1.335-5.853h59.814A4.813,4.813,0,0,0,107.758,55.111Z" transform="translate(0.5 0.5)" fill="#fff" stroke="#000" stroke-width="1"/>
</svg>
