<svg xmlns="http://www.w3.org/2000/svg" width="23.737" height="23.737" viewBox="0 0 23.737 23.737">
    <path id="Path_40" data-name="Path 40" d="M11.869,2.11a36.392,36.392,0,0,1,4.747.132,6.116,6.116,0,0,1,2.242.4A4.631,4.631,0,0,1,21.1,4.879a6.117,6.117,0,0,1,.4,2.242c0,1.187.132,1.582.132,4.747a36.391,36.391,0,0,1-.132,4.747,6.117,6.117,0,0,1-.4,2.242A4.631,4.631,0,0,1,18.858,21.1a6.117,6.117,0,0,1-2.242.4c-1.187,0-1.582.132-4.747.132A36.391,36.391,0,0,1,7.121,21.5a6.116,6.116,0,0,1-2.242-.4,4.631,4.631,0,0,1-2.242-2.242,6.116,6.116,0,0,1-.4-2.242c0-1.187-.132-1.582-.132-4.747a36.392,36.392,0,0,1,.132-4.747,6.116,6.116,0,0,1,.4-2.242,4.736,4.736,0,0,1,.923-1.319,2.23,2.23,0,0,1,1.319-.923,6.116,6.116,0,0,1,2.242-.4,36.392,36.392,0,0,1,4.747-.132m0-2.11A38.965,38.965,0,0,0,6.989.132a8.141,8.141,0,0,0-2.9.527,5.162,5.162,0,0,0-2.11,1.319A5.162,5.162,0,0,0,.659,4.088a6.009,6.009,0,0,0-.527,2.9A38.965,38.965,0,0,0,0,11.869a38.965,38.965,0,0,0,.132,4.879,8.141,8.141,0,0,0,.527,2.9,5.162,5.162,0,0,0,1.319,2.11,5.162,5.162,0,0,0,2.11,1.319,8.141,8.141,0,0,0,2.9.527,38.965,38.965,0,0,0,4.879.132,38.965,38.965,0,0,0,4.879-.132,8.141,8.141,0,0,0,2.9-.527,5.533,5.533,0,0,0,3.429-3.429,8.141,8.141,0,0,0,.527-2.9c0-1.319.132-1.714.132-4.879a38.965,38.965,0,0,0-.132-4.879,8.141,8.141,0,0,0-.527-2.9,5.162,5.162,0,0,0-1.319-2.11A5.162,5.162,0,0,0,19.649.659a8.141,8.141,0,0,0-2.9-.527A38.965,38.965,0,0,0,11.869,0m0,5.8A5.968,5.968,0,0,0,5.8,11.869,6.066,6.066,0,1,0,11.869,5.8m0,10.022a3.886,3.886,0,0,1-3.956-3.956,3.886,3.886,0,0,1,3.956-3.956,3.886,3.886,0,0,1,3.956,3.956,3.886,3.886,0,0,1-3.956,3.956M18.2,4.088a1.451,1.451,0,1,0,1.451,1.451A1.463,1.463,0,0,0,18.2,4.088" fill="#fff" fill-rule="evenodd"/>
</svg>
