<svg xmlns="http://www.w3.org/2000/svg" width="77.447" height="72.082" viewBox="0 0 77.447 72.082">
  <path id="Icon_metro-cross" data-name="Icon metro-cross" d="M79.311,59.837h0L55.816,37.969,79.31,16.1h0a2.224,2.224,0,0,0,.553-.8,2.14,2.14,0,0,0-.554-2.381l-11.1-10.33a2.551,2.551,0,0,0-2.558-.515,2.435,2.435,0,0,0-.864.515h0L41.294,24.454,17.8,2.586h0a2.432,2.432,0,0,0-.863-.515,2.551,2.551,0,0,0-2.559.515l-11.1,10.33A2.14,2.14,0,0,0,2.724,15.3a2.228,2.228,0,0,0,.553.8h0L26.773,37.969,3.278,59.837h0a2.231,2.231,0,0,0-.553.8,2.14,2.14,0,0,0,.554,2.381l11.1,10.33a2.551,2.551,0,0,0,2.559.515,2.436,2.436,0,0,0,.863-.515h0L41.294,51.484,64.789,73.352h0a2.434,2.434,0,0,0,.863.515,2.55,2.55,0,0,0,2.558-.515l11.1-10.33a2.14,2.14,0,0,0,.554-2.381,2.227,2.227,0,0,0-.553-.8Z" transform="translate(-2.571 -1.928)" fill="#e0d15c"/>
</svg>
