<svg xmlns="http://www.w3.org/2000/svg" width="125.786" height="83.567" viewBox="0 0 125.786 83.567">
  <path id="Icon_awesome-truck" data-name="Icon awesome-truck" d="M122.641,57.452H119.5V39.808a7.234,7.234,0,0,0-2.771-5.533L97.091,17.97a10.487,10.487,0,0,0-6.663-2.3H81.761V7.834C81.761,3.509,77.535,0,72.327,0H9.434C4.226,0,0,3.509,0,7.834V60.064C0,64.389,4.226,67.9,9.434,67.9h3.145c0,8.65,8.451,15.669,18.868,15.669S50.314,76.548,50.314,67.9H75.471c0,8.65,8.451,15.669,18.868,15.669s18.868-7.018,18.868-15.669h9.434a2.924,2.924,0,0,0,3.145-2.611V60.064A2.924,2.924,0,0,0,122.641,57.452ZM31.446,75.732c-5.208,0-9.434-3.509-9.434-7.834s4.226-7.834,9.434-7.834S40.88,63.573,40.88,67.9,36.655,75.732,31.446,75.732Zm62.893,0c-5.208,0-9.434-3.509-9.434-7.834s4.226-7.834,9.434-7.834,9.434,3.509,9.434,7.834S99.548,75.732,94.339,75.732Zm15.723-33.949h-28.3V23.5h8.667l19.634,16.305Z" fill="#e0d15c"/>
</svg>
