<svg xmlns="http://www.w3.org/2000/svg" width="29.32" height="23.782" viewBox="0 0 29.32 23.782">
  <path id="Path_39" data-name="Path 39" d="M47.285,25.782c11.076,0,17.1-9.122,17.1-17.1V7.864A13.241,13.241,0,0,0,67.32,4.769a13.522,13.522,0,0,1-3.421.977,6.337,6.337,0,0,0,2.606-3.258,14.941,14.941,0,0,1-3.746,1.466A5.817,5.817,0,0,0,58.361,2a6.12,6.12,0,0,0-6.027,6.027,3.176,3.176,0,0,0,.163,1.3,16.841,16.841,0,0,1-12.38-6.353A6.238,6.238,0,0,0,39.3,6.072a6.472,6.472,0,0,0,2.606,5.05,5.491,5.491,0,0,1-2.769-.814h0a5.953,5.953,0,0,0,4.887,5.864,5.022,5.022,0,0,1-1.629.163,2.772,2.772,0,0,1-1.14-.163,6.171,6.171,0,0,0,5.7,4.235,12.3,12.3,0,0,1-7.493,2.606A4.51,4.51,0,0,1,38,22.85a15.375,15.375,0,0,0,9.285,2.932" transform="translate(-38 -2)" fill="#fff" fill-rule="evenodd"/>
</svg>
