<svg xmlns="http://www.w3.org/2000/svg" width="110.579" height="101.645" viewBox="0 0 110.579 101.645">
    <path id="Icon_material-account-box" data-name="Icon material-account-box" d="M4.5,15.683V93.962c0,6.151,5.418,11.183,12.175,11.183H101.9c6.7,0,12.175-5.032,12.175-11.183V15.683C114.079,9.532,108.6,4.5,101.9,4.5H16.675C9.918,4.5,4.5,9.532,4.5,15.683ZM77.553,38.048c0,9.282-8.158,16.774-18.263,16.774S41.026,47.33,41.026,38.048,49.184,21.274,59.29,21.274,77.553,28.767,77.553,38.048ZM22.763,82.779c0-11.183,24.351-17.333,36.526-17.333S95.816,71.6,95.816,82.779v5.591H22.763Z" transform="translate(-4 -4)" fill="#fff" stroke="#000" stroke-width="1"/>
</svg>
