<?xml version="1.0" encoding="UTF-8"?><svg id="Layer_2" xmlns="http://www.w3.org/2000/svg" viewBox="0 0 780 500"><g id="Layer_1-2"><path d="M40,0H740c22.09,0,40,17.91,40,40V460c0,22.09-17.91,40-40,40H40c-22.09,0-40-17.91-40-40V40C0,17.91,17.91,0,40,0Z" style="fill:#0e4595;"/><path d="M293.2,348.73l33.36-195.76h53.36l-33.39,195.76h-53.34Zm246.11-191.54c-10.57-3.97-27.14-8.22-47.82-8.22-52.73,0-89.86,26.55-90.18,64.6-.3,28.13,26.51,43.82,46.75,53.19,20.77,9.6,27.75,15.71,27.65,24.28-.13,13.12-16.59,19.12-31.92,19.12-21.36,0-32.7-2.97-50.23-10.28l-6.88-3.11-7.49,43.82c12.46,5.46,35.51,10.2,59.44,10.44,56.09,0,92.5-26.25,92.92-66.88,.2-22.27-14.02-39.22-44.8-53.19-18.65-9.06-30.07-15.1-29.95-24.27,0-8.14,9.67-16.84,30.56-16.84,17.45-.27,30.09,3.54,39.94,7.5l4.78,2.26,7.23-42.43m137.31-4.22h-41.23c-12.77,0-22.33,3.49-27.94,16.23l-79.24,179.4h56.03s9.16-24.12,11.23-29.42c6.12,0,60.55,.08,68.34,.08,1.6,6.85,6.49,29.33,6.49,29.33h49.51l-43.19-195.64h0Zm-65.42,126.42c4.41-11.28,21.26-54.72,21.26-54.72-.32,.52,4.38-11.33,7.07-18.68l3.6,16.88s10.22,46.73,12.35,56.53h-44.29ZM247.9,152.97l-52.24,133.5-5.57-27.13c-9.73-31.27-40.02-65.15-73.9-82.12l47.77,171.2,56.46-.06,84-195.39h-56.52" style="fill:#fff;"/><path d="M146.92,152.96H60.88l-.68,4.07c66.94,16.2,111.23,55.36,129.62,102.41l-18.71-89.96c-3.23-12.4-12.6-16.09-24.19-16.53" style="fill:#f2ae14;"/></g></svg>